# MagicaVoxel @ Ephtracy

# material
mtllib fruit.mtl
usemtl palette

# normals
vn -1 0 0
vn 1 0 0
vn 0 0 1
vn 0 0 -1
vn 0 -1 0
vn 0 1 0

# texcoords
vt 0.294922 0.5
vt 0.392578 0.5
vt 0.400391 0.5
vt 0.404297 0.5

# verts
v -5 0 -0
v -5 0 -1
v -5 0 -5
v -5 3 -0
v -5 3 -1
v -5 4 -4
v -5 4 -5
v -5 8 -4
v -5 8 -5
v -5 9 -0
v -5 9 -5
v -3 9 -0
v -3 9 -3
v -3 10 -0
v -3 10 -1
v -3 12 -0
v -3 12 -1
v -3 12 -3
v -3 14 -0
v -3 14 -3
v 0 0 5
v 0 0 -0
v 0 1 4
v 0 1 -0
v 0 2 5
v 0 2 4
v 0 5 5
v 0 5 4
v 0 7 4
v 0 7 2
v 0 9 5
v 0 9 3
v 0 12 3
v 0 12 2
v 0 12 -0
v 0 14 3
v 0 14 -0
v 0 14 -2
v 0 17 -0
v 0 17 -2
v 2 14 -0
v 2 14 -2
v 2 17 -0
v 2 17 -2
v 3 9 3
v 3 9 -3
v 3 10 -1
v 3 10 -3
v 3 12 3
v 3 12 -1
v 3 12 -3
v 3 14 3
v 3 14 -3
v 5 0 5
v 5 0 -5
v 5 1 -3
v 5 1 -5
v 5 4 3
v 5 4 -0
v 5 4 -3
v 5 4 -5
v 5 7 3
v 5 7 -0
v 5 9 5
v 5 9 -5
v 0 0 5
v 0 2 5
v 0 5 5
v 0 9 5
v 2 2 5
v 2 5 5
v 5 0 5
v 5 9 5
v 0 9 3
v 0 12 3
v 0 14 3
v 3 9 3
v 3 12 3
v 3 14 3
v -5 0 -0
v -5 3 -0
v -5 9 -0
v -4 1 -0
v -4 3 -0
v -4 7 -0
v -3 9 -0
v -3 10 -0
v -3 12 -0
v -3 14 -0
v -2 0 -0
v -2 1 -0
v -2 7 -0
v -2 10 -0
v -2 12 -0
v 0 0 -0
v 0 1 -0
v 0 12 -0
v 0 14 -0
v 0 17 -0
v 2 14 -0
v 2 17 -0
v 0 14 -2
v 0 17 -2
v 2 14 -2
v 2 17 -2
v -3 9 -3
v -3 12 -3
v -3 14 -3
v 1 10 -3
v 1 12 -3
v 3 9 -3
v 3 10 -3
v 3 12 -3
v 3 14 -3
v -5 0 -5
v -5 4 -5
v -5 8 -5
v -5 9 -5
v -1 4 -5
v -1 8 -5
v 3 1 -5
v 3 4 -5
v 5 0 -5
v 5 1 -5
v 5 4 -5
v 5 9 -5
v 0 0 5
v 5 0 5
v 1 0 1
v 4 0 1
v -5 0 -0
v -2 0 -0
v 0 0 -0
v -5 0 -1
v -2 0 -1
v 1 0 -2
v 4 0 -2
v -5 0 -5
v 5 0 -5
v 0 9 5
v 5 9 5
v 0 9 3
v 3 9 3
v -5 9 -0
v -3 9 -0
v -3 9 -3
v 3 9 -3
v -5 9 -5
v 5 9 -5
v 0 14 3
v 3 14 3
v -3 14 -0
v 0 14 -0
v 2 14 -0
v 0 14 -2
v 2 14 -2
v -3 14 -3
v 3 14 -3
v 0 17 -0
v 2 17 -0
v 0 17 -2
v 2 17 -2

# faces
f 4/3/1 2/3/1 1/3/1
f 5/4/1 3/4/1 2/4/1
f 5/3/1 2/3/1 4/3/1
f 6/4/1 5/4/1 4/4/1
f 6/4/1 3/4/1 5/4/1
f 7/4/1 3/4/1 6/4/1
f 8/4/1 6/4/1 4/4/1
f 8/3/1 7/3/1 6/3/1
f 9/3/1 7/3/1 8/3/1
f 10/4/1 8/4/1 4/4/1
f 10/4/1 9/4/1 8/4/1
f 11/4/1 9/4/1 10/4/1
f 14/4/1 13/4/1 12/4/1
f 15/4/1 13/4/1 14/4/1
f 16/3/1 15/3/1 14/3/1
f 17/4/1 13/4/1 15/4/1
f 17/3/1 15/3/1 16/3/1
f 18/4/1 13/4/1 17/4/1
f 19/2/1 17/2/1 16/2/1
f 19/2/1 18/2/1 17/2/1
f 20/2/1 18/2/1 19/2/1
f 23/4/1 22/4/1 21/4/1
f 24/4/1 22/4/1 23/4/1
f 25/4/1 23/4/1 21/4/1
f 26/1/1 24/1/1 23/1/1
f 26/4/1 23/4/1 25/4/1
f 27/3/1 26/3/1 25/3/1
f 28/1/1 24/1/1 26/1/1
f 28/3/1 26/3/1 27/3/1
f 29/4/1 28/4/1 27/4/1
f 29/1/1 24/1/1 28/1/1
f 30/1/1 24/1/1 29/1/1
f 31/4/1 29/4/1 27/4/1
f 31/4/1 30/4/1 29/4/1
f 32/4/1 30/4/1 31/4/1
f 33/4/1 30/4/1 32/4/1
f 34/1/1 24/1/1 30/1/1
f 34/4/1 30/4/1 33/4/1
f 35/1/1 24/1/1 34/1/1
f 36/2/1 34/2/1 33/2/1
f 36/2/1 35/2/1 34/2/1
f 37/2/1 35/2/1 36/2/1
f 39/2/1 38/2/1 37/2/1
f 40/2/1 38/2/1 39/2/1
f 41/2/2 42/2/2 43/2/2
f 43/2/2 42/2/2 44/2/2
f 45/4/2 46/4/2 47/4/2
f 47/4/2 46/4/2 48/4/2
f 45/4/2 47/4/2 49/4/2
f 47/3/2 48/3/2 50/3/2
f 49/4/2 47/4/2 50/4/2
f 50/3/2 48/3/2 51/3/2
f 49/2/2 50/2/2 52/2/2
f 50/2/2 51/2/2 52/2/2
f 52/2/2 51/2/2 53/2/2
f 54/4/2 55/4/2 56/4/2
f 56/4/2 55/4/2 57/4/2
f 54/4/2 56/4/2 58/4/2
f 58/4/2 56/4/2 59/4/2
f 56/3/2 57/3/2 60/3/2
f 59/4/2 56/4/2 60/4/2
f 60/3/2 57/3/2 61/3/2
f 58/3/2 59/3/2 62/3/2
f 54/4/2 58/4/2 62/4/2
f 60/4/2 61/4/2 63/4/2
f 62/3/2 59/3/2 63/3/2
f 59/4/2 60/4/2 63/4/2
f 54/4/2 62/4/2 64/4/2
f 62/4/2 63/4/2 64/4/2
f 63/4/2 61/4/2 65/4/2
f 64/4/2 63/4/2 65/4/2
f 70/4/3 67/4/3 66/4/3
f 70/3/3 68/3/3 67/3/3
f 71/4/3 69/4/3 68/4/3
f 71/3/3 68/3/3 70/3/3
f 72/4/3 70/4/3 66/4/3
f 72/4/3 71/4/3 70/4/3
f 73/4/3 69/4/3 71/4/3
f 73/4/3 71/4/3 72/4/3
f 77/4/3 75/4/3 74/4/3
f 78/2/3 76/2/3 75/2/3
f 78/4/3 75/4/3 77/4/3
f 79/2/3 76/2/3 78/2/3
f 83/3/3 81/3/3 80/3/3
f 84/4/3 82/4/3 81/4/3
f 84/3/3 81/3/3 83/3/3
f 85/4/3 82/4/3 84/4/3
f 86/4/3 82/4/3 85/4/3
f 90/3/3 83/3/3 80/3/3
f 91/1/3 84/1/3 83/1/3
f 91/3/3 83/3/3 90/3/3
f 91/1/3 85/1/3 84/1/3
f 92/4/3 86/4/3 85/4/3
f 92/1/3 85/1/3 91/1/3
f 92/4/3 87/4/3 86/4/3
f 93/3/3 88/3/3 87/3/3
f 93/4/3 87/4/3 92/4/3
f 94/2/3 89/2/3 88/2/3
f 94/3/3 88/3/3 93/3/3
f 95/4/3 91/4/3 90/4/3
f 96/1/3 93/1/3 92/1/3
f 96/4/3 91/4/3 95/4/3
f 96/1/3 92/1/3 91/1/3
f 96/1/3 94/1/3 93/1/3
f 97/2/3 89/2/3 94/2/3
f 97/1/3 94/1/3 96/1/3
f 98/2/3 89/2/3 97/2/3
f 100/2/3 99/2/3 98/2/3
f 101/2/3 99/2/3 100/2/3
f 102/2/4 103/2/4 104/2/4
f 104/2/4 103/2/4 105/2/4
f 106/4/4 107/4/4 109/4/4
f 107/2/4 108/2/4 110/2/4
f 109/4/4 107/4/4 110/4/4
f 106/4/4 109/4/4 111/4/4
f 109/3/4 110/3/4 112/3/4
f 111/4/4 109/4/4 112/4/4
f 110/2/4 108/2/4 113/2/4
f 112/3/4 110/3/4 113/3/4
f 113/2/4 108/2/4 114/2/4
f 115/4/4 116/4/4 119/4/4
f 116/3/4 117/3/4 119/3/4
f 117/4/4 118/4/4 120/4/4
f 119/3/4 117/3/4 120/3/4
f 115/4/4 119/4/4 121/4/4
f 119/4/4 120/4/4 121/4/4
f 121/4/4 120/4/4 122/4/4
f 115/4/4 121/4/4 123/4/4
f 121/3/4 122/3/4 124/3/4
f 123/4/4 121/4/4 124/4/4
f 122/4/4 120/4/4 125/4/4
f 124/3/4 122/3/4 125/3/4
f 120/4/4 118/4/4 126/4/4
f 125/4/4 120/4/4 126/4/4
f 129/4/5 128/4/5 127/4/5
f 130/4/5 128/4/5 129/4/5
f 133/4/5 129/4/5 127/4/5
f 134/3/5 132/3/5 131/3/5
f 135/4/5 133/4/5 132/4/5
f 135/3/5 132/3/5 134/3/5
f 136/3/5 130/3/5 129/3/5
f 136/4/5 133/4/5 135/4/5
f 136/4/5 135/4/5 134/4/5
f 136/4/5 129/4/5 133/4/5
f 137/4/5 128/4/5 130/4/5
f 137/3/5 130/3/5 136/3/5
f 138/4/5 136/4/5 134/4/5
f 138/4/5 137/4/5 136/4/5
f 139/4/5 128/4/5 137/4/5
f 139/4/5 137/4/5 138/4/5
f 140/4/6 141/4/6 142/4/6
f 142/4/6 141/4/6 143/4/6
f 144/4/6 145/4/6 146/4/6
f 143/4/6 141/4/6 147/4/6
f 144/4/6 146/4/6 148/4/6
f 146/4/6 147/4/6 148/4/6
f 147/4/6 141/4/6 149/4/6
f 148/4/6 147/4/6 149/4/6
f 150/2/6 151/2/6 153/2/6
f 153/2/6 151/2/6 154/2/6
f 152/2/6 153/2/6 155/2/6
f 154/2/6 151/2/6 156/2/6
f 152/2/6 155/2/6 157/2/6
f 155/2/6 156/2/6 157/2/6
f 156/2/6 151/2/6 158/2/6
f 157/2/6 156/2/6 158/2/6
f 159/2/6 160/2/6 161/2/6
f 161/2/6 160/2/6 162/2/6
